HIERARCHY
ROOT Hips
{
  OFFSET 5.72205e-005 65.662 3.42586
  CHANNELS 6 Xposition Yposition Zposition Zrotation Xrotation Yrotation
  JOINT Chest
  {
    OFFSET 0 8.7983 -4.7612
    CHANNELS 6 Xposition Yposition Zposition Zrotation Xrotation Yrotation
    JOINT Chest2
    {
      OFFSET 0 8.0291 0.4195
      CHANNELS 6 Xposition Yposition Zposition Zrotation Xrotation Yrotation
      JOINT Chest3
      {
        OFFSET 0 9.9351 -2.2114
        CHANNELS 6 Xposition Yposition Zposition Zrotation Xrotation Yrotation
        JOINT Neck
        {
          OFFSET 0 22.3885 -0.4656
          CHANNELS 6 Xposition Yposition Zposition Zrotation Xrotation Yrotation
          JOINT Head
          {
            OFFSET -0.0001 12.643 3.4389
            CHANNELS 6 Xposition Yposition Zposition Zrotation Xrotation Yrotation
            End Site
            {
              OFFSET 0.0001 17.6655 0.5274
            }
          }
        }
        JOINT LeftCollar
        {
          OFFSET 2.2603 21.606 7.4023
          CHANNELS 6 Xposition Yposition Zposition Zrotation Xrotation Yrotation
          JOINT LeftShoulder
          {
            OFFSET 13.5163 -1.1332 -5.0146
            CHANNELS 6 Xposition Yposition Zposition Zrotation Xrotation Yrotation
            JOINT LeftElbow
            {
              OFFSET -0.0995 -28.05 -0.2431
              CHANNELS 6 Xposition Yposition Zposition Zrotation Xrotation Yrotation
              JOINT LeftWrist
              {
                OFFSET 0.0679 -23.3996 -0.1402
                CHANNELS 6 Xposition Yposition Zposition Zrotation Xrotation Yrotation
                JOINT LeftFinger1
                {
                  OFFSET 0.7932 -9.069 2.5189
                  CHANNELS 6 Xposition Yposition Zposition Zrotation Xrotation Yrotation
                  JOINT LeftFinger11
                  {
                    OFFSET -0.8272 -3.3923 0.5977
                    CHANNELS 6 Xposition Yposition Zposition Zrotation Xrotation Yrotation
                    JOINT LeftFinger12
                    {
                      OFFSET -0.5649 -2.3158 0.4082
                      CHANNELS 6 Xposition Yposition Zposition Zrotation Xrotation Yrotation
                      End Site
                      {
                        OFFSET -0.4919 -1.6479 0.2673
                      }
                    }
                  }
                }
                JOINT LeftFinger2
                {
                  OFFSET 0.9159 -9.2044 0.2193
                  CHANNELS 6 Xposition Yposition Zposition Zrotation Xrotation Yrotation
                  JOINT LeftFinger21
                  {
                    OFFSET 0.0117 -4.1944 -0.0248
                    CHANNELS 6 Xposition Yposition Zposition Zrotation Xrotation Yrotation
                    JOINT LeftFinger22
                    {
                      OFFSET 0.0071 -2.3249 -0.0142
                      CHANNELS 6 Xposition Yposition Zposition Zrotation Xrotation Yrotation
                      End Site
                      {
                        OFFSET -0.1475 -2.0882 0.0028
                      }
                    }
                  }
                }
                JOINT LeftFinger3
                {
                  OFFSET 0.6113 -8.7231 -2.0637
                  CHANNELS 6 Xposition Yposition Zposition Zrotation Xrotation Yrotation
                  JOINT LeftFinger31
                  {
                    OFFSET -0.1927 -3.8059 -0.2383
                    CHANNELS 6 Xposition Yposition Zposition Zrotation Xrotation Yrotation
                    JOINT LeftFinger32
                    {
                      OFFSET -0.1091 -2.1688 -0.1362
                      CHANNELS 6 Xposition Yposition Zposition Zrotation Xrotation Yrotation
                      End Site
                      {
                        OFFSET -0.2358 -1.9176 -0.0906
                      }
                    }
                  }
                }
                JOINT LeftFinger4
                {
                  OFFSET -0.6151 -8.0947 -3.5641
                  CHANNELS 6 Xposition Yposition Zposition Zrotation Xrotation Yrotation
                  JOINT LeftFinger41
                  {
                    OFFSET -0.4882 -2.341 -0.6462
                    CHANNELS 6 Xposition Yposition Zposition Zrotation Xrotation Yrotation
                    JOINT LeftFinger42
                    {
                      OFFSET -0.3575 -1.7167 -0.4742
                      CHANNELS 6 Xposition Yposition Zposition Zrotation Xrotation Yrotation
                      End Site
                      {
                        OFFSET -0.4187 -1.5237 -0.3496
                      }
                    }
                  }
                }
                JOINT LeftFinger0
                {
                  OFFSET -1.42 -1.8761 1.4223
                  CHANNELS 6 Xposition Yposition Zposition Zrotation Xrotation Yrotation
                  JOINT LeftFinger01
                  {
                    OFFSET -1.1471 -3.4929 2.6334
                    CHANNELS 6 Xposition Yposition Zposition Zrotation Xrotation Yrotation
                    JOINT LeftFinger02
                    {
                      OFFSET -0.823 -2.3 1.6571
                      CHANNELS 6 Xposition Yposition Zposition Zrotation Xrotation Yrotation
                      End Site
                      {
                        OFFSET -0.5822 -1.6914 1.1582
                      }
                    }
                  }
                }
              }
            }
          }
        }
        JOINT RightCollar
        {
          OFFSET -2.2603 21.606 7.4023
          CHANNELS 6 Xposition Yposition Zposition Zrotation Xrotation Yrotation
          JOINT RightShoulder
          {
            OFFSET -13.5187 -1.1334 -5.0155
            CHANNELS 6 Xposition Yposition Zposition Zrotation Xrotation Yrotation
            JOINT RightElbow
            {
              OFFSET 0.0994 -28.0499 -0.2431
              CHANNELS 6 Xposition Yposition Zposition Zrotation Xrotation Yrotation
              JOINT RightWrist
              {
                OFFSET -0.0679 -23.3996 -0.1402
                CHANNELS 6 Xposition Yposition Zposition Zrotation Xrotation Yrotation
                JOINT RightFinger1
                {
                  OFFSET -0.7932 -9.0691 2.5189
                  CHANNELS 6 Xposition Yposition Zposition Zrotation Xrotation Yrotation
                  JOINT RightFinger11
                  {
                    OFFSET 0.8272 -3.3923 0.5977
                    CHANNELS 6 Xposition Yposition Zposition Zrotation Xrotation Yrotation
                    JOINT RightFinger12
                    {
                      OFFSET 0.565 -2.3158 0.4082
                      CHANNELS 6 Xposition Yposition Zposition Zrotation Xrotation Yrotation
                      End Site
                      {
                        OFFSET 0.4919 -1.6479 0.2673
                      }
                    }
                  }
                }
                JOINT RightFinger2
                {
                  OFFSET -0.916 -9.2044 0.2193
                  CHANNELS 6 Xposition Yposition Zposition Zrotation Xrotation Yrotation
                  JOINT RightFinger21
                  {
                    OFFSET -0.0117 -4.1944 -0.0248
                    CHANNELS 6 Xposition Yposition Zposition Zrotation Xrotation Yrotation
                    JOINT RightFinger22
                    {
                      OFFSET -0.0071 -2.3249 -0.0142
                      CHANNELS 6 Xposition Yposition Zposition Zrotation Xrotation Yrotation
                      End Site
                      {
                        OFFSET 0.1475 -2.0882 0.0028
                      }
                    }
                  }
                }
                JOINT RightFinger3
                {
                  OFFSET -0.6113 -8.7231 -2.0637
                  CHANNELS 6 Xposition Yposition Zposition Zrotation Xrotation Yrotation
                  JOINT RightFinger31
                  {
                    OFFSET 0.1927 -3.8059 -0.2383
                    CHANNELS 6 Xposition Yposition Zposition Zrotation Xrotation Yrotation
                    JOINT RightFinger32
                    {
                      OFFSET 0.1091 -2.1688 -0.1362
                      CHANNELS 6 Xposition Yposition Zposition Zrotation Xrotation Yrotation
                      End Site
                      {
                        OFFSET 0.2358 -1.9176 -0.0906
                      }
                    }
                  }
                }
                JOINT RightFinger4
                {
                  OFFSET 0.6151 -8.0947 -3.564
                  CHANNELS 6 Xposition Yposition Zposition Zrotation Xrotation Yrotation
                  JOINT RightFinger41
                  {
                    OFFSET 0.4882 -2.341 -0.6462
                    CHANNELS 6 Xposition Yposition Zposition Zrotation Xrotation Yrotation
                    JOINT RightFinger42
                    {
                      OFFSET 0.3574 -1.7166 -0.4742
                      CHANNELS 6 Xposition Yposition Zposition Zrotation Xrotation Yrotation
                      End Site
                      {
                        OFFSET 0.4187 -1.5237 -0.3496
                      }
                    }
                  }
                }
                JOINT RightFinger0
                {
                  OFFSET 1.4199 -1.8761 1.4221
                  CHANNELS 6 Xposition Yposition Zposition Zrotation Xrotation Yrotation
                  JOINT RightFinger01
                  {
                    OFFSET 1.1472 -3.4929 2.6336
                    CHANNELS 6 Xposition Yposition Zposition Zrotation Xrotation Yrotation
                    JOINT RightFinger02
                    {
                      OFFSET 0.8229 -2.3 1.6571
                      CHANNELS 6 Xposition Yposition Zposition Zrotation Xrotation Yrotation
                      End Site
                      {
                        OFFSET 0.5822 -1.6914 1.1582
                      }
                    }
                  }
                }
              }
            }
          }
        }
      }
    }
  }
  JOINT RightHip
  {
    OFFSET -9.412 3.9771 -0.7758
    CHANNELS 6 Xposition Yposition Zposition Zrotation Xrotation Yrotation
    JOINT RightKnee
    {
      OFFSET -0.7531 -40.938 0
      CHANNELS 6 Xposition Yposition Zposition Zrotation Xrotation Yrotation
      JOINT RightAnkle
      {
        OFFSET 0 -40.1986 0
        CHANNELS 6 Xposition Yposition Zposition Zrotation Xrotation Yrotation
        JOINT RightToe
        {
          OFFSET 0 -4.4182 9.239
          CHANNELS 6 Xposition Yposition Zposition Zrotation Xrotation Yrotation
          End Site
          {
            OFFSET 0 0 6.1981
          }
        }
      }
    }
  }
  JOINT LeftHip
  {
    OFFSET 9.4119 3.9773 -0.7758
    CHANNELS 6 Xposition Yposition Zposition Zrotation Xrotation Yrotation
    JOINT LeftKnee
    {
      OFFSET 0.7532 -40.9383 0
      CHANNELS 6 Xposition Yposition Zposition Zrotation Xrotation Yrotation
      JOINT LeftAnkle
      {
        OFFSET 0 -40.1986 0
        CHANNELS 6 Xposition Yposition Zposition Zrotation Xrotation Yrotation
        JOINT LeftToe
        {
          OFFSET 0 -4.4182 9.239
          CHANNELS 6 Xposition Yposition Zposition Zrotation Xrotation Yrotation
          End Site
          {
            OFFSET 0 0 6.1981
          }
        }
      }
    }
  }
}
MOTION
Frames:	4
Frame Time:	0.0333333
5.72205e-005 65.662 3.42586 0 0 -0 0 8.7983 -4.7612 0 0 -0 0 8.0291 0.4195 0 0 -0 0 9.9351 -2.2114 0 0 -0 0 22.3885 -0.4656 0 0 -0 -0.0001 12.643 3.4389 0 0 -0 2.2603 21.606 7.4023 0 0 -12.5014 13.5163 -1.1332 -5.0146 88.1196 14.2451 10.6914 -0.0995 -28.05 -0.2431 -0.00160068 -0.00239207 0.000740045 0.0679 -23.3996 -0.1402 -8.4365e-005 7.00714e-005 -9.52055e-007 0.7932 -9.069 2.5189 9.93923e-017 -1.98785e-016 -1.59028e-015 -0.8272 -3.3923 0.5977 9.93923e-017 -5.96354e-016 -1.59028e-015 -0.5649 -2.3158 0.4082 -9.93923e-017 -5.96354e-016 -1.59028e-015 0.9159 -9.2044 0.2193 9.93923e-017 -1.98785e-016 -1.59028e-015 0.0117 -4.1944 -0.0248 -0.0128176 0.00232552 8.52707e-005 0.0071 -2.3249 -0.0142 9.93923e-017 5.96354e-016 -0 0.6113 -8.7231 -2.0637 9.93923e-017 -1.98785e-016 -1.59028e-015 -0.1927 -3.8059 -0.2383 -0.0160551 0.00299681 0.000857156 -0.1091 -2.1688 -0.1362 -2.48481e-016 0 3.18055e-015 -0.6151 -8.0947 -3.5641 9.93923e-017 -1.98785e-016 -1.59028e-015 -0.4882 -2.341 -0.6462 -0.0125865 0.0031206 0.00282719 -0.3575 -1.7167 -0.4742 0 1.98785e-016 -0 -1.42 -1.8761 1.4223 9.93923e-017 -1.98785e-016 -1.59028e-015 -1.1471 -3.4929 2.6334 9.93923e-017 -5.96354e-016 -1.59028e-015 -0.823 -2.3 1.6571 -9.93923e-017 -5.96354e-016 -1.59028e-015 -2.2603 21.606 7.4023 -0.865644 0.16582 7.03859 -13.5187 -1.1334 -5.0155 -88.0329 10.2057 -10.5567 0.0994 -28.0499 -0.2431 0.0015593 -0.00248883 -0.000788628 -0.0679 -23.3996 -0.1402 7.87605e-005 4.10553e-005 1.24965e-005 -0.7932 -9.0691 2.5189 -3.97569e-016 -7.95139e-016 3.18055e-015 0.8272 -3.3923 0.5977 -1.98785e-016 -3.97569e-016 3.18055e-015 0.565 -2.3158 0.4082 -1.98785e-016 0 3.18055e-015 -0.916 -9.2044 0.2193 -3.97569e-016 -7.95139e-016 3.18055e-015 -0.0117 -4.1944 -0.0248 0.0129473 0.00231697 -8.70038e-005 -0.0071 -2.3249 -0.0142 9.93923e-017 -7.95139e-016 1.59028e-015 -0.6113 -8.7231 -2.0637 -3.97569e-016 -7.95139e-016 3.18055e-015 0.1927 -3.8059 -0.2383 0.0163314 0.00303369 -0.000872333 0.1091 -2.1688 -0.1362 3.97569e-016 7.95139e-016 -3.18055e-015 0.6151 -8.0947 -3.564 -3.97569e-016 -7.95139e-016 3.18055e-015 0.4882 -2.341 -0.6462 0.0145763 0.00367772 -0.00326275 0.3574 -1.7166 -0.4742 9.93923e-017 -3.97569e-016 -0 1.4199 -1.8761 1.4221 -3.97569e-016 -7.95139e-016 3.18055e-015 1.1472 -3.4929 2.6336 -1.98785e-016 -3.97569e-016 3.18055e-015 0.8229 -2.3 1.6571 -1.98785e-016 0 3.18055e-015 -9.412 3.9771 -0.7758 3.42482 1.32465 -0.0626183 -0.7531 -40.938 0 0.000117508 0.717283 0.000978199 0 -40.1986 0 -3.4257 -2.04197 -0.0604716 8.88178e-016 -4.4182 9.239 6.47761e-025 0 -0 9.4119 3.9773 -0.7758 -3.42483 1.34017 0.0627307 0.7532 -40.9383 -2.22045e-016 -0.000193936 0.682302 -0.0013703 -8.88179e-016 -40.1986 0 3.42574 -2.02253 0.0595886 -8.88178e-016 -4.4182 9.239 -8.45714e-024 0 -7.40531e-025 
-24.1857 12.0322 1.81062 1.05806e-006 27.9976 -6.89539e-007 3.55271e-015 8.7983 -4.7612 2.2626 16.1397 -2.10975 0 8.0291 0.4195 5.522 32.1623 -5.24568 -3.55272e-015 9.9351 -2.2114 5.52196 32.1621 -5.24563 0 22.3885 -0.4656 8.60073 16.0867 -4.4035 -0.0001 12.643 3.4389 -0.0014626 -21.629 -18.0023 2.2603 21.606 7.4023 -35.3593 -49.5832 38.7121 13.5163 -1.1332 -5.0146 44.5407 8.66906 4.3509 -0.0995 -28.05 -0.2431 -24.0222 4.26905 -10.684 0.0679 -23.3996 -0.1402 11.996 -1.23158 -6.86293 0.7932 -9.069 2.5189 1.19271e-015 1.98785e-016 9.61621e-015 -0.8272 -3.3923 0.5977 -2.22419e-032 1.98785e-016 6.41081e-015 -0.5649 -2.3158 0.4082 7.95139e-016 0 6.34869e-015 0.9159 -9.2044 0.2193 1.19271e-015 1.98785e-016 9.61621e-015 0.0117 -4.1944 -0.0248 -0.0128304 0.00231971 8.94189e-005 0.0071 -2.3249 -0.0142 2.31471e-032 -1.98785e-016 6.67171e-015 0.6113 -8.7231 -2.0637 1.19271e-015 1.98785e-016 9.61621e-015 -0.1927 -3.8059 -0.2383 -0.0160522 0.00298916 0.000857312 -0.1091 -2.1688 -0.1362 7.95139e-016 -3.97569e-016 1.25483e-015 -0.6151 -8.0947 -3.5641 1.19271e-015 1.98785e-016 9.61621e-015 -0.4882 -2.341 -0.6462 -0.0126205 0.00311979 0.00282963 -0.3575 -1.7167 -0.4742 3.97569e-016 -3.97569e-016 -3.68994e-015 -1.42 -1.8761 1.4223 1.19271e-015 1.98785e-016 9.61621e-015 -1.1471 -3.4929 2.6334 -2.22419e-032 1.98785e-016 6.41081e-015 -0.823 -2.3 1.6571 7.95139e-016 0 6.34869e-015 -2.2603 21.606 7.4023 19.573 -44.5031 -40.8581 -13.5187 -1.1334 -5.0155 -44.4526 2.0272 -0.902711 0.0994 -28.0499 -0.2431 34.8371 5.85757 17.0915 -0.0679 -23.3996 -0.1402 -26.6381 -13.5738 -1.74761 -0.7932 -9.0691 2.5189 1.59028e-015 -1.27222e-014 4.02539e-015 0.8272 -3.3923 0.5977 -7.95139e-016 -1.11319e-014 3.62782e-015 0.565 -2.3158 0.4082 -1.65521e-032 -9.54166e-015 -9.93923e-017 -0.916 -9.2044 0.2193 1.59028e-015 -1.27222e-014 4.02539e-015 -0.0117 -4.1944 -0.0248 0.0129813 0.00231613 -8.42783e-005 -0.0071 -2.3249 -0.0142 -1.98785e-015 0 -1.15295e-014 -0.6113 -8.7231 -2.0637 1.59028e-015 -1.27222e-014 4.02539e-015 0.1927 -3.8059 -0.2383 0.0163201 0.00302842 -0.000873371 0.1091 -2.1688 -0.1362 7.95139e-016 0 -5.46658e-016 0.6151 -8.0947 -3.564 1.59028e-015 -1.27222e-014 4.02539e-015 0.4882 -2.341 -0.6462 0.014594 0.00367754 -0.00326122 0.3574 -1.7166 -0.4742 -1.19271e-015 -1.59028e-015 -5.81445e-015 1.4199 -1.8761 1.4221 1.59028e-015 -1.27222e-014 4.02539e-015 1.1472 -3.4929 2.6336 -7.95139e-016 -1.11319e-014 3.62782e-015 0.8229 -2.3 1.6571 -1.65521e-032 -9.54166e-015 -9.93923e-017 -9.412 3.9771 -0.7758 -8.84684 -70.3913 -16.8342 -0.7531 -40.938 3.55271e-015 -175.787 30.7106 172.337 0 -40.1986 1.77636e-015 -4.54829 45.133 -9.45082 0 -4.4182 9.239 -4.07354e-007 -6.04018e-008 -7.37149e-007 9.4119 3.9773 -0.7758 8.76613 -70.2818 16.6795 0.7532 -40.9383 -3.55271e-015 175.848 30.7689 -172.393 0 -40.1986 -1.77636e-015 4.70798 44.506 9.29804 1.77636e-015 -4.4182 9.239 -4.42547e-007 -4.70067e-006 -3.95166e-007 
-24.1857 12.0322 1.81062 1.22662e-006 27.9976 -7.62056e-007 -3.55271e-015 8.7983 -4.7612 2.2626 16.1397 -2.10975 0 8.0291 0.4195 5.522 32.1623 -5.24568 -3.55271e-015 9.9351 -2.2114 5.52196 32.1621 -5.24564 0 22.3885 -0.4656 7.06487 16.1277 -3.97842 -0.0001 12.643 3.4389 -0.00156866 -22.764 -18.0023 2.2603 21.606 7.4023 -35.3593 -49.5832 38.7121 13.5163 -1.1332 -5.0146 44.5407 8.66889 4.35088 -0.0995 -28.05 -0.2431 -24.0223 4.26921 -10.6839 0.0679 -23.3996 -0.1402 11.9959 -1.2316 -6.86295 0.7932 -9.069 2.5189 -7.95139e-016 -1.98785e-016 4.13721e-015 -0.8272 -3.3923 0.5977 3.77596e-032 3.97569e-016 -5.44173e-015 -0.5649 -2.3158 0.4082 1.8966e-032 1.98785e-016 -5.46658e-015 0.9159 -9.2044 0.2193 -7.95139e-016 -1.98785e-016 4.13721e-015 0.0117 -4.1944 -0.0248 -0.0128113 0.00232186 9.00389e-005 0.0071 -2.3249 -0.0142 7.95139e-016 1.98785e-016 -9.28076e-015 0.6113 -8.7231 -2.0637 -7.95139e-016 -1.98785e-016 4.13721e-015 -0.1927 -3.8059 -0.2383 -0.0160594 0.00299961 0.000861739 -0.1091 -2.1688 -0.1362 -3.08198e-032 -1.2921e-014 -1.36664e-016 -0.6151 -8.0947 -3.5641 -7.95139e-016 -1.98785e-016 4.13721e-015 -0.4882 -2.341 -0.6462 -0.0125534 0.00311758 0.00281665 -0.3575 -1.7167 -0.4742 3.97569e-016 -3.97569e-016 2.48481e-016 -1.42 -1.8761 1.4223 -7.95139e-016 -1.98785e-016 4.13721e-015 -1.1471 -3.4929 2.6334 3.77596e-032 3.97569e-016 -5.44173e-015 -0.823 -2.3 1.6571 1.8966e-032 1.98785e-016 -5.46658e-015 -2.2603 21.606 7.4023 19.573 -44.5031 -40.8581 -13.5187 -1.1334 -5.0155 -44.4527 2.02712 -0.902706 0.0994 -28.0499 -0.2431 34.8371 5.8576 17.0915 -0.0679 -23.3996 -0.1402 -26.6381 -13.5738 -1.74758 -0.7932 -9.0691 2.5189 -8.00021e-032 -1.59028e-015 -2.88238e-015 0.8272 -3.3923 0.5977 5.58066e-006 3.48505e-006 1.56378e-006 0.565 -2.3158 0.4082 -1.59028e-015 -1.59028e-015 -6.36111e-015 -0.916 -9.2044 0.2193 -8.00021e-032 -1.59028e-015 -2.88238e-015 -0.0117 -4.1944 -0.0248 0.0129671 0.00231062 -8.66361e-005 -0.0071 -2.3249 -0.0142 -1.19271e-015 -1.59028e-015 -3.77691e-015 -0.6113 -8.7231 -2.0637 -8.00021e-032 -1.59028e-015 -2.88238e-015 0.1927 -3.8059 -0.2383 0.0163122 0.00303376 -0.000869417 0.1091 -2.1688 -0.1362 -7.95139e-016 0 -5.2181e-015 0.6151 -8.0947 -3.564 -8.00021e-032 -1.59028e-015 -2.88238e-015 0.4882 -2.341 -0.6462 0.0145864 0.00368174 -0.00326479 0.3574 -1.7166 -0.4742 -1.59028e-015 1.59028e-015 8.39865e-015 1.4199 -1.8761 1.4221 -8.00021e-032 -1.59028e-015 -2.88238e-015 1.1472 -3.4929 2.6336 5.58066e-006 3.48505e-006 1.56378e-006 0.8229 -2.3 1.6571 -1.59028e-015 -1.59028e-015 -6.36111e-015 -9.412 3.9771 -0.7758 -8.84683 -70.3913 -16.8342 -0.7531 -40.938 -7.10543e-015 -175.787 30.7106 172.337 0 -40.1986 -1.77636e-015 -4.54829 45.133 -9.45082 -7.10543e-015 -4.4182 9.239 6.75461e-007 -1.2085e-006 -4.82526e-006 9.4119 3.9773 -0.7758 8.7661 -70.2817 16.6794 0.7532 -40.9383 3.55271e-015 175.848 30.7689 -172.393 1.77636e-015 -40.1986 0 4.708 44.506 9.29803 -1.77636e-015 -4.4182 9.239 3.73055e-007 -6.68553e-008 -2.05478e-007 
-24.1857 12.0322 1.81062 1.38027e-006 27.9976 -9.35013e-007 3.55271e-015 8.7983 -4.7612 2.2626 16.1397 -2.10975 0 8.0291 0.4195 5.522 32.1623 -5.24568 0 9.9351 -2.2114 5.52195 32.1621 -5.24563 -3.55271e-015 22.3885 -0.4656 5.52459 16.1577 -3.55119 -0.0001 12.643 3.4389 -0.00166888 -23.9007 -18.0023 2.2603 21.606 7.4023 -35.3593 -49.5832 38.7121 13.5163 -1.1332 -5.0146 44.5407 8.66896 4.3509 -0.0995 -28.05 -0.2431 -24.0223 4.26911 -10.684 0.0679 -23.3996 -0.1402 11.9959 -1.23159 -6.8629 0.7932 -9.069 2.5189 -3.97569e-016 5.96354e-016 -1.98785e-015 -0.8272 -3.3923 0.5977 3.97569e-016 1.98785e-016 -2.01269e-015 -0.5649 -2.3158 0.4082 3.97569e-016 0 1.19271e-015 0.9159 -9.2044 0.2193 -3.97569e-016 5.96354e-016 -1.98785e-015 0.0117 -4.1944 -0.0248 -0.0128039 0.00233449 8.17248e-005 0.0071 -2.3249 -0.0142 7.95139e-016 -3.97569e-016 -3.27995e-015 0.6113 -8.7231 -2.0637 -3.97569e-016 5.96354e-016 -1.98785e-015 -0.1927 -3.8059 -0.2383 -0.0160772 0.00300479 0.000863158 -0.1091 -2.1688 -0.1362 -3.97569e-016 1.98785e-016 -1.15544e-014 -0.6151 -8.0947 -3.5641 -3.97569e-016 5.96354e-016 -1.98785e-015 -0.4882 -2.341 -0.6462 -0.0126074 0.00314304 0.00282933 -0.3575 -1.7167 -0.4742 -7.95139e-016 3.97569e-016 -1.22998e-015 -1.42 -1.8761 1.4223 -3.97569e-016 5.96354e-016 -1.98785e-015 -1.1471 -3.4929 2.6334 3.97569e-016 1.98785e-016 -2.01269e-015 -0.823 -2.3 1.6571 3.97569e-016 0 1.19271e-015 -2.2603 21.606 7.4023 19.573 -44.5031 -40.8581 -13.5187 -1.1334 -5.0155 -44.4526 2.02718 -0.902706 0.0994 -28.0499 -0.2431 34.8371 5.85756 17.0915 -0.0679 -23.3996 -0.1402 -26.6381 -13.5738 -1.74762 -0.7932 -9.0691 2.5189 -3.6024e-006 1.28682e-006 1.02237e-005 0.8272 -3.3923 0.5977 0 0 -3.72721e-015 0.565 -2.3158 0.4082 2.38542e-015 3.18055e-015 -1.19271e-015 -0.916 -9.2044 0.2193 -3.6024e-006 1.28682e-006 1.02237e-005 -0.0117 -4.1944 -0.0248 0.0129523 0.00232349 -9.91392e-005 -0.0071 -2.3249 -0.0142 3.97569e-016 1.59028e-015 4.72114e-015 -0.6113 -8.7231 -2.0637 -3.6024e-006 1.28682e-006 1.02237e-005 0.1927 -3.8059 -0.2383 0.0163195 0.00303099 -0.000866041 0.1091 -2.1688 -0.1362 -7.95139e-016 -1.59028e-015 2.73329e-015 0.6151 -8.0947 -3.564 -3.6024e-006 1.28682e-006 1.02237e-005 0.4882 -2.341 -0.6462 0.0145915 0.00368788 -0.00327548 0.3574 -1.7166 -0.4742 7.95139e-016 3.18055e-015 5.71506e-015 1.4199 -1.8761 1.4221 -3.6024e-006 1.28682e-006 1.02237e-005 1.1472 -3.4929 2.6336 0 0 -3.72721e-015 0.8229 -2.3 1.6571 2.38542e-015 3.18055e-015 -1.19271e-015 -9.412 3.9771 -0.7758 -8.84684 -70.3914 -16.8342 -0.7531 -40.938 -3.55271e-015 -175.787 30.7106 172.337 0 -40.1986 0 -4.54827 45.133 -9.45083 -7.10543e-015 -4.4182 9.239 3.32959e-007 3.45805e-006 -2.40963e-006 9.4119 3.9773 -0.7758 8.76609 -70.2818 16.6794 0.7532 -40.9383 1.77636e-015 175.848 30.769 -172.393 -1.77636e-015 -40.1986 -1.77636e-015 4.708 44.506 9.29802 1.77636e-015 -4.4182 9.239 3.31444e-007 5.18841e-008 -1.1441e-006 
